# xmcd
#
# Track frame offsets:
#	150
#	7514
#	19450
#	30452
#	43000
#	54272
#	78642
#	92220
#	106984
#	112212
#	118757
#	130595
#	142249
#	155076
#	169851
#	180989
#	195746
#
# Disc length: 2684 seconds
#
# Revision: 0
# Processed by: cddbd v1.5PL3 Copyright (c) Steve Scherf et al.
# Submitted via: dBpowerAMP V4.0
#
DISCID=e20a7a11
DTITLE=Porter Wagner - Porter Wagner In Person
DYEAR=1900
DGENRE=Country
TTITLE0=Howdy Neighbor Howdy
TTITLE1=Misery Loves Company
TTITLE2=Head Over Heels In Love Without You
TTITLE3=I Didn't Mean It
TTITLE4=Foggy Mountain Top
TTITLE5=Comedy: Sweet Fern
TTITLE6=Medley: A. Haven't You Heard B. Eat, Drink and Be Merry C. A Satisfied Mind
TTITLE7=I Thought Of God
TTITLE8=Sally Goodin'
TTITLE9=Come On In (And Make Youtself At Home)
TTITLE10=My Baby's Not Here (In town Tonight)
TTITLE11=Talk Back trembling Lips
TTITLE12=Private Little World
TTITLE13=Comedy
TTITLE14=Find Out
TTITLE15=An Old Log Cabin For Sale
TTITLE16=John Henry
EXTD=
EXTT0=
EXTT1=
EXTT2=
EXTT3=
EXTT4=
EXTT5=
EXTT6=
EXTT7=
EXTT8=
EXTT9=
EXTT10=
EXTT11=
EXTT12=
EXTT13=
EXTT14=
EXTT15=
EXTT16=
PLAYORDER=
